<?xml version="1.0" encoding="UTF-8"?>
<svg id="logosandtypes_com" data-name="logosandtypes com" xmlns="http://www.w3.org/2000/svg" xmlns:xlink="http://www.w3.org/1999/xlink" viewBox="0 0 150 150">
  <defs>
    <style>
      .cls-1 {
        fill: none;
      }

      .cls-2 {
        fill: url(#linear-gradient);
      }
    </style>
    <linearGradient id="linear-gradient" x1="188.08" y1="-242.14" x2="319.28" y2="-242.14" gradientTransform="translate(-178.55 -165.53) scale(1 -1)" gradientUnits="userSpaceOnUse">
      <stop offset="0" stop-color="#6a26b5"/>
      <stop offset=".09" stop-color="#6629b6"/>
      <stop offset=".19" stop-color="#5933b7"/>
      <stop offset=".29" stop-color="#4544ba"/>
      <stop offset=".39" stop-color="#285bbd"/>
      <stop offset=".49" stop-color="#0379c2"/>
      <stop offset=".5" stop-color="#007bc2"/>
      <stop offset=".9" stop-color="#06acef"/>
    </linearGradient>
  </defs>
  <path class="cls-1" d="M0,0H150V150H0V0Z"/>
  <path class="cls-2" d="M75.54,124.43c-1.08-1.09-1.69-2.56-1.69-4.09v-5.74h22.55c3.16-.03,5.74,2.51,5.77,5.67,0,.01,0,.02,0,.03,0,3.2-2.59,5.8-5.79,5.82h-16.76c-1.51-.01-2.96-.62-4.03-1.68m-43.24-25.94c0-3.18,2.58-5.76,5.77-5.77h25.4v11.53h-25.4c-3.18,0-5.76-2.58-5.77-5.77m41.52-27.65h35.11c3.19,.13,5.66,2.82,5.53,6.01-.13,3-2.53,5.4-5.53,5.53h-35.11v-11.54ZM19.71,54.71c0-3.19,2.59-5.77,5.78-5.78H63.54v11.54H25.48c-3.19,0-5.77-2.58-5.78-5.77m54.16-22.42c0-3.19,2.58-5.77,5.77-5.78h49.68c-2.28,7.2-8.95,12.09-16.5,12.1h-38.94v-6.32Zm5.77-16.13c-8.91,0-16.13,7.22-16.13,16.13v6.34H25.48c-8.91,0-16.13,7.22-16.13,16.13s7.22,16.13,16.13,16.13H63.54v11.54h-25.4c-8.91,0-16.13,7.22-16.13,16.13s7.22,16.13,16.13,16.13h25.4v5.74c0,8.91,7.22,16.13,16.13,16.13h16.77c8.89,.55,16.54-6.22,17.09-15.11,.55-8.89-6.22-16.54-15.11-17.09-.66-.04-1.32-.04-1.97,0h-22.57v-11.63h35.11c8.91,0,16.13-7.22,16.13-16.13s-7.22-16.13-16.13-16.13h-35.11v-11.5h38.94c15.25,0,27.62-12.37,27.62-27.62v-4.16c0-.56-.45-1.01-1.01-1.01h-59.79Z"/>
</svg>