<?xml version="1.0"?>
<svg width="2081" height="2081" xmlns="http://www.w3.org/2000/svg" xmlns:svg="http://www.w3.org/2000/svg" enable-background="new 0 0 2081 2081" version="1.1" xml:space="preserve">
 <g class="layer">
  <title>Layer 1</title>
  <path d="m2,2012c0,-647.4 0,-1294.79 0.61,-1943.43c2.15,-4.15 3.89,-6.97 5.19,-9.99c7.25,-16.88 17.95,-31.17 33.3,-41.26c9.07,-5.96 19.23,-10.27 28.9,-15.32c647.4,0 1294.79,0 1943.48,0.59c4.39,1.77 7.58,2.74 10.54,4.19c33.97,16.56 54.64,42.71 58.14,82.01c-0.13,1.91 -0.15,2.91 -0.15,3.91c-0.01,630.15 -0.01,1260.31 0,1890.46c0,2.99 0.2,5.99 0.17,9.82c-1.84,27.15 -14.36,47.94 -33.57,65.04c-15.54,13.84 -34.3,20.83 -55.56,23.92c-5.23,-0.01 -9.56,0.06 -13.89,0.06c-625.09,0 -1250.18,0 -1875.27,0.01c-4.66,0 -9.32,0.13 -14.7,-0.1c-34.65,-5.03 -60.43,-21.91 -77.42,-51.81c-3.39,-5.96 -6.52,-12.06 -9.77,-18.1m560.66,-1148.43c55.34,-32.61 115.21,-39.79 177.56,-30.34c63.09,9.56 113.72,41.3 154.46,89.82c29,34.53 50.31,73.53 67.38,114.99c6.56,15.94 12.33,32.2 17.8,46.58c-22.71,25.04 -45.13,47.92 -65.47,72.5c-76.34,92.24 -127.53,197.62 -160.51,312.22c-33.64,116.88 -46.17,236.36 -43.22,357.67c0.87,35.69 25.24,58.71 61.03,58.28c42.32,-0.52 84.64,-0.91 126.96,-1.38c2.91,-0.03 5.82,-0.27 9.23,-0.43c0,-4.51 0.05,-8.43 -0.01,-12.34c-0.61,-41.31 -2.48,-82.64 -1.6,-123.91c1.71,-80.8 11.76,-160.71 30.18,-239.46c18.11,-77.48 44,-152.15 81.56,-222.51c1.33,-2.51 2.94,-4.86 5.36,-8.83c21.56,145.82 25.56,290.78 26.66,436.1c47.9,0 94.56,0.75 141.19,-0.26c30.68,-0.66 52.79,-25.48 52.72,-56.63c-0.03,-15.65 -0.45,-31.32 -1.3,-46.95c-2.23,-40.91 -3.79,-81.89 -7.5,-122.68c-3.86,-42.42 -9.15,-84.76 -15.21,-126.94c-9.8,-68.3 -24.48,-135.59 -45.17,-201.48c-5.48,-17.42 -11.34,-34.72 -16.95,-51.82c0.61,-0.92 0.9,-1.54 1.35,-1.99c1.19,-1.17 2.41,-2.3 3.68,-3.37c38.33,-32.62 80.57,-58.92 127.01,-78.39c62.03,-26.01 126.88,-37.43 193.94,-36.92c33.16,0.26 65.77,4.67 97.29,15.35c66.22,22.44 114.8,64.72 143.45,128.92c22.16,49.66 28.02,101.81 21.79,155.4c-9.34,80.51 -47.68,143.73 -115.02,188.99c-41.52,27.91 -87.79,44.2 -136.44,54.22c-37.28,7.67 -74.99,11.72 -113.07,12.33c-7.59,0.12 -15.17,0.49 -22.95,0.76c-0.26,2.06 -0.59,3.34 -0.54,4.6c1.44,38.29 2.35,76.6 4.56,114.85c1.9,32.82 27.37,54.74 60.47,53.18c13.96,-0.66 27.89,-2.14 41.82,-3.41c56.58,-5.18 111.97,-16.16 165.8,-34.44c59.8,-20.31 115.09,-49 163.52,-89.98c50.54,-42.78 88.56,-94.57 112.19,-156.69c21.59,-56.74 28.94,-115.35 23.75,-175.7c-4.78,-55.63 -20.92,-107.69 -49.3,-155.78c-38.52,-65.27 -93,-113.49 -160.11,-147.73c-69.8,-35.6 -144.55,-51.46 -222.4,-53.83c-53.44,-1.62 -106.52,2.47 -159.18,11.89c-74.62,13.34 -145.6,37.19 -212.36,73.29c-6.89,3.73 -13.83,7.38 -20.96,11.18c-1.65,-2.8 -2.85,-4.77 -4,-6.77c-28.1,-49.19 -61.62,-94.15 -103.45,-132.64c-50.68,-46.62 -108.99,-79.47 -175.62,-97.28c-75,-20.04 -150.73,-21.69 -226.76,-7.52c-73.2,13.64 -138.31,44.89 -195.12,93.16c-54.64,46.44 -95.87,103.32 -129,166.41c-34.08,64.89 -58,133.6 -76.43,204.36c-14.63,56.14 -25.47,113.04 -33.29,170.49c-4.36,31.99 -7.38,64.18 -10.82,96.3c-1.01,9.39 0.03,18.66 4.04,27.37c10.55,22.95 28.6,34.33 53.76,34.38c41.33,0.07 82.66,0.02 124,-0.01c2.58,0 5.17,-0.3 8.3,-0.5c0.36,-3.35 0.84,-6.25 0.98,-9.16c3.22,-70.9 8.23,-141.65 17.1,-212.1c7.49,-59.51 17.47,-118.56 32.57,-176.66c14.77,-56.88 33.75,-112.19 62.94,-163.52c26.41,-46.43 59.65,-86.62 107.36,-115.24m937.04,-512.05c-20.68,-2.25 -41.29,-1.09 -61.69,2.51c-71.2,12.56 -126.23,49.29 -160.79,113.06c-37.31,68.83 -40.54,141.29 -14.28,214.49c20.49,57.11 59.05,99.18 114.06,125.18c49.6,23.46 101.91,28.25 155.13,16.81c73.86,-15.88 127.43,-58.56 158.79,-127.52c24.73,-54.38 28,-111.23 14.85,-169.05c-22.34,-98.22 -104.31,-168.35 -206.07,-175.48m-583.6,7.36c-0.78,-2.55 -1.48,-5.12 -2.34,-7.64c-21.62,-62.73 -61.77,-109.02 -122.65,-136.14c-47.76,-21.27 -97.89,-25.36 -148.68,-14.69c-75.14,15.79 -129.52,58.92 -160.66,129.37c-26.68,60.37 -28.87,122.89 -9.01,185.44c21.25,66.9 64.59,114.93 130.12,141.41c47.04,19.02 95.91,22.42 145.2,11.04c74,-17.1 127.3,-60.58 157.76,-130.3c25.06,-57.39 27.07,-116.75 10.26,-178.49z" fill="#4C12A1" id="svg_1" opacity="1"/>
  <path d="m2082.31,1992.14c-0.1,-2.99 -0.3,-5.99 -0.3,-8.98c-0.01,-630.15 -0.01,-1260.31 0,-1890.46c0,-1 0.02,-2 0.58,-3.92c0.55,-0.92 1.41,-0.78 1.41,-0.78c0,634.06 0,1268.12 -0.42,1903.2c-0.41,1.01 -1.27,0.94 -1.27,0.94z" fill="#C3B0E0" id="svg_2" opacity="1"/>
  <path d="m89.91,2082.2c4.66,-0.06 9.32,-0.19 13.98,-0.19c625.09,-0.01 1250.18,-0.01 1875.27,-0.01c4.33,0 8.66,-0.07 13.87,0.44c0.92,0.89 0.94,1.22 0.97,1.56c-634.06,0 -1268.12,0 -1903.14,-0.45c-0.95,-0.45 -0.95,-1.35 -0.95,-1.35z" fill="#C3B0DF" id="svg_3" opacity="1"/>
  <path d="m562,863.89c-47.05,28.3 -80.29,68.49 -106.7,114.92c-29.19,51.33 -48.17,106.64 -62.94,163.52c-15.1,58.1 -25.08,117.15 -32.57,176.66c-8.87,70.45 -13.88,141.2 -17.1,212.1c-0.14,2.91 -0.62,5.81 -0.98,9.16c-3.13,0.2 -5.72,0.5 -8.3,0.5c-41.34,0.03 -82.67,0.08 -124,0.01c-25.16,-0.05 -43.21,-11.43 -53.76,-34.38c-4.01,-8.71 -5.05,-17.98 -4.04,-27.37c3.44,-32.12 6.46,-64.31 10.82,-96.3c7.82,-57.45 18.66,-114.35 33.29,-170.49c18.43,-70.76 42.35,-139.47 76.43,-204.36c33.13,-63.09 74.36,-119.97 129,-166.41c56.81,-48.27 121.92,-79.52 195.12,-93.16c76.03,-14.17 151.76,-12.52 226.76,7.52c66.63,17.81 124.94,50.66 175.62,97.28c41.83,38.49 75.35,83.45 103.45,132.64c1.15,2 2.35,3.97 4,6.77c7.13,-3.8 14.07,-7.45 20.96,-11.18c66.76,-36.1 137.74,-59.95 212.36,-73.29c52.66,-9.42 105.74,-13.51 159.18,-11.89c77.85,2.37 152.6,18.23 222.4,53.83c67.11,34.24 121.59,82.46 160.11,147.73c28.38,48.09 44.52,100.15 49.3,155.78c5.19,60.35 -2.16,118.96 -23.75,175.7c-23.63,62.12 -61.65,113.91 -112.19,156.69c-48.43,40.98 -103.72,69.67 -163.52,89.98c-53.83,18.28 -109.22,29.26 -165.8,34.44c-13.93,1.27 -27.86,2.75 -41.82,3.41c-33.1,1.56 -58.57,-20.36 -60.47,-53.18c-2.21,-38.25 -3.12,-76.56 -4.56,-114.85c-0.05,-1.26 0.28,-2.54 0.54,-4.6c7.78,-0.27 15.36,-0.64 22.95,-0.76c38.08,-0.61 75.79,-4.66 113.07,-12.33c48.65,-10.02 94.92,-26.31 136.44,-54.22c67.34,-45.26 105.68,-108.48 115.02,-188.99c6.23,-53.59 0.37,-105.74 -21.79,-155.4c-28.65,-64.2 -77.23,-106.48 -143.45,-128.92c-31.52,-10.68 -64.13,-15.09 -97.29,-15.35c-67.06,-0.51 -131.91,10.91 -193.94,36.92c-46.44,19.47 -88.68,45.77 -127.01,78.39c-1.27,1.07 -2.49,2.2 -3.68,3.37c-0.45,0.45 -0.74,1.07 -1.35,1.99c5.61,17.1 11.47,34.4 16.95,51.82c20.69,65.89 35.37,133.18 45.17,201.48c6.06,42.18 11.35,84.52 15.21,126.94c3.71,40.79 5.27,81.77 7.5,122.68c0.85,15.63 1.27,31.3 1.3,46.95c0.07,31.15 -22.04,55.97 -52.72,56.63c-46.63,1.01 -93.29,0.26 -141.19,0.26c-1.1,-145.32 -5.1,-290.28 -26.66,-436.1c-2.42,3.97 -4.03,6.32 -5.36,8.83c-37.56,70.36 -63.45,145.03 -81.56,222.51c-18.42,78.75 -28.47,158.66 -30.18,239.46c-0.88,41.27 0.99,82.6 1.6,123.91c0.06,3.91 0.01,7.83 0.01,12.34c-3.41,0.16 -6.32,0.4 -9.23,0.43c-42.32,0.47 -84.64,0.86 -126.96,1.38c-35.79,0.43 -60.16,-22.59 -61.03,-58.28c-2.95,-121.31 9.58,-240.79 43.22,-357.67c32.98,-114.6 84.17,-219.98 160.51,-312.22c20.34,-24.58 42.76,-47.46 65.47,-72.5c-5.47,-14.38 -11.24,-30.64 -17.8,-46.58c-17.07,-41.46 -38.38,-80.46 -67.38,-114.99c-40.74,-48.52 -91.37,-80.26 -154.46,-89.82c-62.35,-9.45 -122.22,-2.27 -178.22,30.66z" fill="#FEFEFF" id="svg_8" opacity="1"/>
  <path d="m1500.62,351.55c100.84,7.1 182.81,77.23 205.15,175.45c13.15,57.82 9.88,114.67 -14.85,169.05c-31.36,68.96 -84.93,111.64 -158.79,127.52c-53.22,11.44 -105.53,6.65 -155.13,-16.81c-55.01,-26 -93.57,-68.07 -114.06,-125.18c-26.26,-73.2 -23.03,-145.66 14.28,-214.49c34.56,-63.77 89.59,-100.5 160.79,-113.06c20.4,-3.6 41.01,-4.76 62.61,-2.48m42.93,379.04c19.5,-18.57 30.19,-41.98 36.35,-67.62c10.25,-42.66 10.6,-85.75 3.69,-128.91c-3.54,-22.14 -10.42,-43.26 -22,-62.72c-36.35,-61.11 -121.88,-60.42 -159.03,-6.92c-12.34,17.78 -19.92,37.54 -24.47,58.53c-8.13,37.51 -8.39,75.37 -3.69,113.26c2.83,22.88 8.97,44.94 19.73,65.58c34.94,67.1 113.36,63.62 149.42,28.8z" fill="#FEFEFE" id="svg_9" opacity="1"/>
  <path d="m916.31,359.66c16.6,60.96 14.59,120.32 -10.47,177.71c-30.46,69.72 -83.76,113.2 -157.76,130.3c-49.29,11.38 -98.16,7.98 -145.2,-11.04c-65.53,-26.48 -108.87,-74.51 -130.12,-141.41c-19.86,-62.55 -17.67,-125.07 9.01,-185.44c31.14,-70.45 85.52,-113.58 160.66,-129.37c50.79,-10.67 100.92,-6.58 148.68,14.69c60.88,27.12 101.03,73.41 122.65,136.14c0.86,2.52 1.56,5.09 2.55,8.42m-114.46,67.48c-1.94,-18.52 -2.93,-37.2 -6.05,-55.52c-4.16,-24.52 -13.17,-47.3 -28.68,-67.28c-35.69,-45.99 -106.34,-44.18 -140.68,-7.46c-18.62,19.92 -28.69,43.8 -34.45,69.85c-8.65,39.17 -8.64,78.7 -3.18,118.22c3.68,26.61 11.67,51.85 27.13,74.34c34.48,50.13 103.34,49.5 138.35,18.38c15.88,-14.12 26.39,-31.57 33.52,-51.24c11.4,-31.45 14.14,-64.2 14.04,-99.29z" fill="#FEFEFE" id="svg_10" opacity="1"/>
  <path d="m1543.02,731.07c-35.53,34.34 -113.95,37.82 -148.89,-29.28c-10.76,-20.64 -16.9,-42.7 -19.73,-65.58c-4.7,-37.89 -4.44,-75.75 3.69,-113.26c4.55,-20.99 12.13,-40.75 24.47,-58.53c37.15,-53.5 122.68,-54.19 159.03,6.92c11.58,19.46 18.46,40.58 22,62.72c6.91,43.16 6.56,86.25 -3.69,128.91c-6.16,25.64 -16.85,49.05 -36.88,68.1z" fill="#4D13A1" id="svg_11" opacity="1"/>
  <path d="m801.85,428.12c0.1,34.11 -2.64,66.86 -14.04,98.31c-7.13,19.67 -17.64,37.12 -33.52,51.24c-35.01,31.12 -103.87,31.75 -138.35,-18.38c-15.46,-22.49 -23.45,-47.73 -27.13,-74.34c-5.46,-39.52 -5.47,-79.05 3.18,-118.22c5.76,-26.05 15.83,-49.93 34.45,-69.85c34.34,-36.72 104.99,-38.53 140.68,7.46c15.51,19.98 24.52,42.76 28.68,67.28c3.12,18.32 4.11,37 6.05,56.5z" fill="#4D13A1" id="svg_12" opacity="1"/>
 </g>
</svg>